<svg width="151" height="151" viewBox="0 0 151 151" fill="none" xmlns="http://www.w3.org/2000/svg">
<rect x="0.0395508" y="0.690918" width="150" height="150" rx="75" fill="#21242B"/>
<path d="M50.4585 92.8629C53.5431 105.902 59.1468 116.544 73.4468 116.544C83.1126 116.544 90.3418 111.766 90.3418 101.864C90.3418 92.4936 77.4437 88.6571 69.9496 84.9835C56.4522 78.2347 42.7035 64.3852 42.7035 50.6254C42.7035 32.015 60.7744 24.8674 76.9089 24.8674C86.8795 24.8674 96.1583 26.8985 104.744 30.9607C105.667 32.8071 102.806 36.8816 102.806 42.8826C102.806 48.7912 105.898 53.2565 105.436 56.5802L96.712 56.3032C96.712 33.337 84.4189 34.4228 74.9701 34.4228C68.2608 34.4228 62.2296 39.0229 62.2296 46.0554C62.2296 58.2104 76.8824 57.9654 88.4378 64.3852C99.9933 70.805 110.006 82.2518 110.006 97.1559C110.006 115.33 93.5691 126.514 76.6319 126.514C66.8459 126.514 55.9515 124.345 43.9498 120.006C43.4882 118.529 47.0592 115.124 46.136 109.4C45.3051 103.676 40.4415 98.6792 40.0723 94.8017L50.4585 92.8629Z" fill="#E875EA"/>
</svg>
